<?xml version="1.0" encoding="UTF-8"?><svg id="Layer_1" xmlns="http://www.w3.org/2000/svg" viewBox="0 0 1080 446.04"><defs><style>.cls-1{font-family:BBDNueFontRegular, 'BBD Nue Font';font-size:84.59px;letter-spacing:.08em;}.cls-1,.cls-2{fill:#fff;}.cls-3{fill:#ce181e;}</style></defs><text class="cls-1" transform="translate(83.38 393.25)"><tspan x="0" y="0">bursary programme</tspan></text><path class="cls-3" d="M182.56,293.68c-16.14-15.85-26.16-37.91-26.16-62.32,0-48.21,39.07-87.29,87.3-87.29,10.86,0,21.17,1.98,30.73,5.6l-52.18-97.62s-63.47,55.11-97.79,104.09c-34.27,48.97-34.73,60.51-36.07,77.44-1.34,16.92,14.31,32.04,29.85,41.39,15.57,9.35,36.03,15.15,45.83,16.93,9.77,1.79,18.49,1.78,18.49,1.78h0ZM179.61,231.35c0-35.39,28.69-64.08,64.08-64.08s64.06,28.68,64.06,64.08-28.67,64.09-64.06,64.09-64.08-28.69-64.08-64.09h0ZM305.9,292.61s31.33-4.71,51.33-11.85c20.02-7.13,42.37-22.66,43.17-44.06.45-11.64-1.05-34.14-42.1-53.14-29.31-13.57-55.84-16.75-55.84-16.75,17.28,15.97,28.51,38.97,28.51,64.54,0,23.65-9.83,45.55-25.08,61.26h0Z"/><path class="cls-2" d="M714.11,116.74c-22.86-.04-41.83,7.16-58.74,23.95l-.25-88.88-27.39.57v156.81c.02,4.93,1.24,19.31,8.58,36.24,2.8,6.47,6.64,11.56,11.26,17.87,14.77,20.13,38.6,31.93,66.53,31.91,48.17,0,86.31-40.13,86.41-88.89-.1-49.44-38.22-89.58-86.41-89.58ZM714.13,266.59c-31.12,0-56.82-25.62-58.04-57.82v-5.03c1.22-32.47,26.94-58.41,58.04-58.39,31.72.07,58.06,27.15,58.07,60.94,0,33.46-26.34,60.25-58.07,60.31ZM522.6,116.74c-22.88-.04-41.83,7.16-58.76,23.95l-.23-88.88-27.39.57v156.81c0,4.93,1.24,19.31,8.56,36.24,2.8,6.47,6.62,11.56,11.26,17.87,14.75,20.13,38.6,31.93,66.55,31.91,48.16,0,86.29-40.13,86.39-88.89-.1-49.44-38.23-89.58-86.39-89.58ZM522.6,266.59c-31.11,0-56.82-25.62-58.07-57.82v-5.03c1.25-32.47,26.98-58.41,58.07-58.39,31.71.07,58.07,27.15,58.07,60.94s-26.32,60.25-58.07,60.31ZM964.32,51.81l-.26,88.87c-16.94-16.79-35.86-23.99-58.74-23.95-48.18,0-86.29,40.14-86.38,89.58.09,48.76,38.21,88.88,86.38,88.89h.04c27.94,0,51.75-11.79,66.5-31.91,4.64-6.31,8.48-11.4,11.25-17.87,7.33-16.93,8.57-31.32,8.58-36.24V52.38l-27.37-.56ZM963.37,208.85c-1.24,32.12-26.95,57.75-58.09,57.74-31.72-.06-58.04-26.85-58.04-60.31s26.34-60.87,58.04-60.94c31.12-.02,56.85,25.92,58.09,58.46v5.04Z"/></svg>