<svg width="113" height="44" viewBox="0 0 113 44" fill="none" xmlns="http://www.w3.org/2000/svg">
<path d="M17.0533 43.6498C14.4953 43.6498 12.1742 43.2353 10.0899 42.4063C8.00557 41.601 6.2055 40.4642 4.68966 38.9957C3.19749 37.5272 2.03692 35.7982 1.20794 33.8086C0.402647 31.8191 0 29.6519 0 27.3071C0 24.9859 0.402647 22.8424 1.20794 20.8766C2.03692 18.9107 3.20933 17.1935 4.72518 15.725C6.24103 14.2566 8.05294 13.1197 10.1609 12.3144C12.2689 11.5091 14.6137 11.1064 17.1954 11.1064C19.6823 11.1064 21.9561 11.4972 24.0167 12.2789C26.0773 13.0368 27.8537 14.1145 29.3459 15.5119C30.838 16.9093 31.9868 18.5554 32.7921 20.4502C33.5974 22.3214 34 24.3701 34 26.5965C34 28.7045 33.6921 30.5046 33.0763 31.9967C32.4842 33.4889 31.6433 34.6258 30.5538 35.4074C29.4643 36.189 28.1853 36.5798 26.7168 36.5798C25.1062 36.5798 23.8272 36.1061 22.8798 35.1587C21.9324 34.2113 21.4587 32.8257 21.4587 31.002V29.3677L21.5653 27.4492L21.2456 22.2977V18.887H26.0773V30.398C26.0773 31.2506 26.2431 31.8428 26.5747 32.1744C26.9063 32.506 27.309 32.6718 27.7827 32.6718C28.3274 32.6718 28.7893 32.4586 29.1682 32.0323C29.5709 31.6059 29.8788 30.9546 30.092 30.0782C30.3051 29.1782 30.4117 28.0413 30.4117 26.6676C30.4117 24.8675 30.092 23.2214 29.4525 21.7292C28.8366 20.2371 27.9366 18.9462 26.7524 17.8567C25.5918 16.7672 24.1944 15.9382 22.5601 15.3698C20.9495 14.7776 19.1613 14.4816 17.1954 14.4816C15.2295 14.4816 13.4295 14.8013 11.7952 15.4408C10.1609 16.0803 8.7635 16.9804 7.60293 18.1409C6.44235 19.2778 5.54232 20.6279 4.90282 22.1911C4.28701 23.7543 3.9791 25.4596 3.9791 27.3071C3.9791 29.2019 4.28701 30.9427 4.90282 32.5296C5.51863 34.0929 6.39498 35.4429 7.53187 36.5798C8.69244 37.7404 10.078 38.6404 11.6886 39.2799C13.2992 39.9194 15.0874 40.2392 17.0533 40.2392C18.1902 40.2392 19.3626 40.1089 20.5705 39.8483C21.7785 39.6115 22.939 39.2207 24.0522 38.6759L25.1891 41.9445C24.0996 42.4892 22.8206 42.9037 21.3521 43.188C19.9074 43.4959 18.4744 43.6498 17.0533 43.6498ZM15.7743 36.5798C14.2584 36.5798 12.8729 36.2127 11.6176 35.4784C10.3859 34.7205 9.403 33.6665 8.66876 32.3165C7.93452 30.9427 7.5674 29.3677 7.5674 27.5913C7.5674 25.8149 7.92267 24.2517 8.63323 22.9016C9.36747 21.5516 10.3504 20.5094 11.582 19.7752C12.8373 19.0173 14.2348 18.6383 15.7743 18.6383C17.3375 18.6383 18.6757 18.9936 19.7889 19.7041C20.9021 20.4147 21.7548 21.4332 22.3469 22.7595C22.939 24.0859 23.2351 25.6965 23.2351 27.5913C23.2351 29.4624 22.9509 31.073 22.3824 32.4231C21.814 33.7731 20.9732 34.8034 19.86 35.514C18.7705 36.2245 17.4086 36.5798 15.7743 36.5798ZM16.8757 32.4941C17.7283 32.4941 18.4862 32.3046 19.1494 31.9257C19.8363 31.523 20.3692 30.9546 20.7482 30.2203C21.1271 29.4861 21.3166 28.6098 21.3166 27.5913C21.3166 26.5491 21.1271 25.6728 20.7482 24.9622C20.3692 24.2517 19.8363 23.7069 19.1494 23.328C18.4862 22.949 17.7283 22.7595 16.8757 22.7595C16.023 22.7595 15.2651 22.949 14.6019 23.328C13.9387 23.7069 13.4176 24.2635 13.0387 24.9978C12.6597 25.7083 12.4702 26.5728 12.4702 27.5913C12.4702 28.6098 12.6597 29.4861 13.0387 30.2203C13.4176 30.9309 13.9387 31.4875 14.6019 31.8901C15.2651 32.2928 16.023 32.4941 16.8757 32.4941Z" fill="black"/>
<path d="M45.372 9.156C44.828 9.156 44.336 9.036 43.896 8.796C43.464 8.548 43.12 8.184 42.864 7.704C42.616 7.224 42.492 6.624 42.492 5.904C42.492 5.184 42.62 4.584 42.876 4.104C43.14 3.624 43.488 3.264 43.92 3.024C44.36 2.784 44.844 2.664 45.372 2.664C45.996 2.664 46.548 2.8 47.028 3.072C47.508 3.344 47.888 3.724 48.168 4.212C48.448 4.692 48.588 5.256 48.588 5.904C48.588 6.552 48.448 7.12 48.168 7.608C47.888 8.096 47.508 8.476 47.028 8.748C46.548 9.02 45.996 9.156 45.372 9.156ZM42 9.084V0.18H43.152V4.416L43.032 5.892L43.104 7.368V9.084H42ZM45.276 8.148C45.684 8.148 46.048 8.056 46.368 7.872C46.696 7.688 46.952 7.428 47.136 7.092C47.328 6.748 47.424 6.352 47.424 5.904C47.424 5.448 47.328 5.056 47.136 4.728C46.952 4.392 46.696 4.132 46.368 3.948C46.048 3.764 45.684 3.672 45.276 3.672C44.876 3.672 44.512 3.764 44.184 3.948C43.864 4.132 43.608 4.392 43.416 4.728C43.232 5.056 43.14 5.448 43.14 5.904C43.14 6.352 43.232 6.748 43.416 7.092C43.608 7.428 43.864 7.688 44.184 7.872C44.512 8.056 44.876 8.148 45.276 8.148Z" fill="black"/>
<path d="M54.8557 9.156C54.3117 9.156 53.8317 9.056 53.4157 8.856C53.0077 8.656 52.6877 8.352 52.4557 7.944C52.2317 7.528 52.1197 7.008 52.1197 6.384V2.724H53.2717V6.252C53.2717 6.876 53.4197 7.344 53.7157 7.656C54.0197 7.968 54.4437 8.124 54.9877 8.124C55.3877 8.124 55.7357 8.044 56.0317 7.884C56.3277 7.716 56.5557 7.476 56.7157 7.164C56.8757 6.844 56.9557 6.46 56.9557 6.012V2.724H58.1077V9.084H57.0157V7.368L57.1957 7.824C56.9877 8.248 56.6757 8.576 56.2597 8.808C55.8437 9.04 55.3757 9.156 54.8557 9.156Z" fill="black"/>
<path d="M62.3008 9.084V2.724H63.4048V4.452L63.2968 4.02C63.4728 3.58 63.7688 3.244 64.1848 3.012C64.6008 2.78 65.1128 2.664 65.7208 2.664V3.78C65.6728 3.772 65.6248 3.768 65.5768 3.768C65.5368 3.768 65.4968 3.768 65.4568 3.768C64.8408 3.768 64.3528 3.952 63.9928 4.32C63.6328 4.688 63.4528 5.22 63.4528 5.916V9.084H62.3008Z" fill="black"/>
<path d="M71.0349 9.156C70.5069 9.156 70.0029 9.084 69.5229 8.94C69.0509 8.796 68.6789 8.62 68.4069 8.412L68.8869 7.5C69.1589 7.684 69.4949 7.84 69.8949 7.968C70.2949 8.096 70.7029 8.16 71.1189 8.16C71.6549 8.16 72.0389 8.084 72.2709 7.932C72.5109 7.78 72.6309 7.568 72.6309 7.296C72.6309 7.096 72.5589 6.94 72.4149 6.828C72.2709 6.716 72.0789 6.632 71.8389 6.576C71.6069 6.52 71.3469 6.472 71.0589 6.432C70.7709 6.384 70.4829 6.328 70.1949 6.264C69.9069 6.192 69.6429 6.096 69.4029 5.976C69.1629 5.848 68.9709 5.676 68.8269 5.46C68.6829 5.236 68.6109 4.94 68.6109 4.572C68.6109 4.188 68.7189 3.852 68.9349 3.564C69.1509 3.276 69.4549 3.056 69.8469 2.904C70.2469 2.744 70.7189 2.664 71.2629 2.664C71.6789 2.664 72.0989 2.716 72.5229 2.82C72.9549 2.916 73.3069 3.056 73.5789 3.24L73.0869 4.152C72.7989 3.96 72.4989 3.828 72.1869 3.756C71.8749 3.684 71.5629 3.648 71.2509 3.648C70.7469 3.648 70.3709 3.732 70.1229 3.9C69.8749 4.06 69.7509 4.268 69.7509 4.524C69.7509 4.74 69.8229 4.908 69.9669 5.028C70.1189 5.14 70.3109 5.228 70.5429 5.292C70.7829 5.356 71.0469 5.412 71.3349 5.46C71.6229 5.5 71.9109 5.556 72.1989 5.628C72.4869 5.692 72.7469 5.784 72.9789 5.904C73.2189 6.024 73.4109 6.192 73.5549 6.408C73.7069 6.624 73.7829 6.912 73.7829 7.272C73.7829 7.656 73.6709 7.988 73.4469 8.268C73.2229 8.548 72.9069 8.768 72.4989 8.928C72.0909 9.08 71.6029 9.156 71.0349 9.156Z" fill="black"/>
<path d="M81.1707 9.084V7.74L81.1107 7.488V5.196C81.1107 4.708 80.9667 4.332 80.6787 4.068C80.3987 3.796 79.9747 3.66 79.4067 3.66C79.0307 3.66 78.6627 3.724 78.3027 3.852C77.9427 3.972 77.6387 4.136 77.3907 4.344L76.9107 3.48C77.2387 3.216 77.6307 3.016 78.0867 2.88C78.5507 2.736 79.0347 2.664 79.5387 2.664C80.4107 2.664 81.0827 2.876 81.5547 3.3C82.0267 3.724 82.2627 4.372 82.2627 5.244V9.084H81.1707ZM79.0827 9.156C78.6107 9.156 78.1947 9.076 77.8347 8.916C77.4827 8.756 77.2107 8.536 77.0187 8.256C76.8267 7.968 76.7307 7.644 76.7307 7.284C76.7307 6.94 76.8107 6.628 76.9707 6.348C77.1387 6.068 77.4067 5.844 77.7747 5.676C78.1507 5.508 78.6547 5.424 79.2867 5.424H81.3027V6.252H79.3347C78.7587 6.252 78.3707 6.348 78.1707 6.54C77.9707 6.732 77.8707 6.964 77.8707 7.236C77.8707 7.548 77.9947 7.8 78.2427 7.992C78.4907 8.176 78.8347 8.268 79.2747 8.268C79.7067 8.268 80.0827 8.172 80.4027 7.98C80.7307 7.788 80.9667 7.508 81.1107 7.14L81.3387 7.932C81.1867 8.308 80.9187 8.608 80.5347 8.832C80.1507 9.048 79.6667 9.156 79.0827 9.156Z" fill="black"/>
<path d="M86.3945 9.084V2.724H87.4985V4.452L87.3905 4.02C87.5665 3.58 87.8625 3.244 88.2785 3.012C88.6945 2.78 89.2065 2.664 89.8145 2.664V3.78C89.7665 3.772 89.7185 3.768 89.6705 3.768C89.6305 3.768 89.5905 3.768 89.5505 3.768C88.9345 3.768 88.4465 3.952 88.0865 4.32C87.7265 4.688 87.5465 5.22 87.5465 5.916V9.084H86.3945Z" fill="black"/>
<path d="M93.2344 9.084V2.724H94.3864V9.084H93.2344ZM93.8104 1.5C93.5864 1.5 93.3984 1.428 93.2464 1.284C93.1024 1.14 93.0304 0.964 93.0304 0.756C93.0304 0.54 93.1024 0.36 93.2464 0.216C93.3984 0.072 93.5864 0 93.8104 0C94.0344 0 94.2184 0.072 94.3624 0.216C94.5144 0.352 94.5904 0.524 94.5904 0.732C94.5904 0.948 94.5184 1.132 94.3744 1.284C94.2304 1.428 94.0424 1.5 93.8104 1.5Z" fill="black"/>
<path d="M101.418 9.156C100.738 9.156 100.138 9.016 99.6179 8.736C99.1059 8.456 98.7059 8.072 98.4179 7.584C98.1379 7.096 97.9979 6.536 97.9979 5.904C97.9979 5.272 98.1339 4.712 98.4059 4.224C98.6859 3.736 99.0659 3.356 99.5459 3.084C100.034 2.804 100.582 2.664 101.19 2.664C101.806 2.664 102.35 2.8 102.822 3.072C103.294 3.344 103.662 3.728 103.926 4.224C104.198 4.712 104.334 5.284 104.334 5.94C104.334 5.988 104.33 6.044 104.322 6.108C104.322 6.172 104.318 6.232 104.31 6.288H98.8979V5.46H103.71L103.242 5.748C103.25 5.34 103.166 4.976 102.99 4.656C102.814 4.336 102.57 4.088 102.258 3.912C101.954 3.728 101.598 3.636 101.19 3.636C100.79 3.636 100.434 3.728 100.122 3.912C99.8099 4.088 99.5659 4.34 99.3899 4.668C99.2139 4.988 99.1259 5.356 99.1259 5.772V5.964C99.1259 6.388 99.2219 6.768 99.4139 7.104C99.6139 7.432 99.8899 7.688 100.242 7.872C100.594 8.056 100.998 8.148 101.454 8.148C101.83 8.148 102.17 8.084 102.474 7.956C102.786 7.828 103.058 7.636 103.29 7.38L103.926 8.124C103.638 8.46 103.278 8.716 102.846 8.892C102.422 9.068 101.946 9.156 101.418 9.156Z" fill="black"/>
<path d="M109.758 9.156C109.23 9.156 108.726 9.084 108.246 8.94C107.774 8.796 107.402 8.62 107.13 8.412L107.61 7.5C107.882 7.684 108.218 7.84 108.618 7.968C109.018 8.096 109.426 8.16 109.842 8.16C110.378 8.16 110.762 8.084 110.994 7.932C111.234 7.78 111.354 7.568 111.354 7.296C111.354 7.096 111.282 6.94 111.138 6.828C110.994 6.716 110.802 6.632 110.562 6.576C110.33 6.52 110.07 6.472 109.782 6.432C109.494 6.384 109.206 6.328 108.918 6.264C108.63 6.192 108.366 6.096 108.126 5.976C107.886 5.848 107.694 5.676 107.55 5.46C107.406 5.236 107.334 4.94 107.334 4.572C107.334 4.188 107.442 3.852 107.658 3.564C107.874 3.276 108.178 3.056 108.57 2.904C108.97 2.744 109.442 2.664 109.986 2.664C110.402 2.664 110.822 2.716 111.246 2.82C111.678 2.916 112.03 3.056 112.302 3.24L111.81 4.152C111.522 3.96 111.222 3.828 110.91 3.756C110.598 3.684 110.286 3.648 109.974 3.648C109.47 3.648 109.094 3.732 108.846 3.9C108.598 4.06 108.474 4.268 108.474 4.524C108.474 4.74 108.546 4.908 108.69 5.028C108.842 5.14 109.034 5.228 109.266 5.292C109.506 5.356 109.77 5.412 110.058 5.46C110.346 5.5 110.634 5.556 110.922 5.628C111.21 5.692 111.47 5.784 111.702 5.904C111.942 6.024 112.134 6.192 112.278 6.408C112.43 6.624 112.506 6.912 112.506 7.272C112.506 7.656 112.394 7.988 112.17 8.268C111.946 8.548 111.63 8.768 111.222 8.928C110.814 9.08 110.326 9.156 109.758 9.156Z" fill="black"/>
<path d="M77.2807 24.8728C73.4232 24.8698 70.2291 28.054 70.0166 32.0634L70.0106 32.1856V32.8153C70.1645 36.8486 73.3824 40.0595 77.2807 40.0586C81.2554 40.0506 84.5538 36.6956 84.5538 32.5044C84.5518 28.2735 81.2534 24.8808 77.2807 24.8728ZM53.2914 24.8728C49.4359 24.8698 46.2398 28.054 46.0253 32.0634L46.0203 32.1856L46.0183 32.8153C46.1752 36.8486 49.3951 40.0595 53.2914 40.0586C57.2681 40.0506 60.5644 36.6956 60.5644 32.5044C60.5644 28.2735 57.2621 24.8808 53.2914 24.8728ZM101.227 24.8728C97.2536 24.8808 93.9532 28.2735 93.9532 32.5044C93.9532 36.6956 97.2516 40.0506 101.227 40.0586C105.091 40.0586 108.287 36.9122 108.501 32.9464L108.506 32.8252V32.1945C108.351 28.1185 105.128 24.8698 101.227 24.8728ZM69.8884 13.1562L69.9202 24.2888C72.0387 22.1863 74.4144 21.2844 77.2777 21.2894C83.3123 21.2894 88.0875 26.3159 88.0994 32.5084C88.0875 38.6165 83.3103 43.641 77.2777 43.642C73.7777 43.6439 70.7942 42.1671 68.9449 39.6454L68.7314 39.3554C68.2467 38.6929 67.8405 38.1159 67.5336 37.4068C66.6467 35.3608 66.4729 33.6108 66.46 32.9374L66.459 32.8679V13.2278L69.8884 13.1562ZM45.9031 13.1562L45.9329 24.2888C48.0514 22.1863 50.4251 21.2844 53.2914 21.2894C59.324 21.2894 64.0992 26.3159 64.1121 32.5084C64.0992 38.6165 59.324 43.641 53.2914 43.642C49.8351 43.6439 46.8824 42.2048 45.0301 39.7437L44.7421 39.3554C44.2574 38.6929 43.8522 38.1159 43.5453 37.4068C42.6435 35.3231 42.4786 33.5483 42.4727 32.9007V13.2278L45.9031 13.1562ZM108.609 13.1572L112.035 13.2268V32.8739C112.035 33.4897 111.879 35.2933 110.962 37.4137C110.615 38.2251 110.134 38.8618 109.553 39.6533C107.731 42.1403 104.805 43.6112 101.367 43.6499H101.221C95.1917 43.6499 90.4185 38.6234 90.4076 32.5143C90.4175 26.3199 95.1897 21.2914 101.221 21.2914C104.039 21.2864 106.377 22.1594 108.472 24.1895L108.576 24.2918L108.609 13.1572Z" fill="black"/>
</svg>
