<svg width="34" height="27" viewBox="0 0 34 27" fill="none" xmlns="http://www.w3.org/2000/svg">
<path d="M23.3275 12.9135L23.5382 12.9423C24.2594 13.0499 26.727 13.4846 29.4089 14.7031C33.8795 16.7324 34.0427 19.1371 33.9944 20.3809C33.908 22.6424 31.5276 24.2896 29.3666 25.0624L29.2914 25.0895C27.1123 25.8521 23.7006 26.3554 23.7006 26.3554C25.3606 24.6769 26.4325 22.3366 26.4325 19.8099C26.4325 17.0772 25.2086 14.6192 23.3266 12.9127L23.3275 12.9135ZM14.5884 0.649414L20.2716 11.0799C19.202 10.6828 18.0676 10.4801 16.9239 10.4817C11.6716 10.4817 7.41521 14.6573 7.41521 19.809C7.41521 22.4188 8.50695 24.7743 10.2655 26.4689L10.1005 26.4655C9.48058 26.4477 8.86282 26.3854 8.25216 26.2791L8.11828 26.2537C7.00668 26.0377 4.88798 25.4293 3.25988 24.4701C1.56786 23.4711 -0.137984 21.8561 0.00884753 20.048L0.0485785 19.5701C0.193683 17.9839 0.540897 16.5341 3.93789 11.7722C7.22692 7.167 12.975 2.05342 14.3077 0.892595L14.5884 0.649414ZM16.9239 12.9618C18.7741 12.9618 20.5485 13.6829 21.8568 14.9663C23.1651 16.2498 23.9001 17.9905 23.9001 19.8056C23.9001 21.6207 23.1651 23.3615 21.8568 24.6449C20.5485 25.9284 18.7741 26.6494 16.9239 26.6494C15.0927 26.6211 13.3462 25.8877 12.0614 24.6073C10.7766 23.3269 10.0565 21.6023 10.0565 19.8056C10.0565 18.009 10.7766 16.2843 12.0614 15.0039C13.3462 13.7236 15.0927 12.9901 16.9239 12.9618Z" fill="#AB0000"/>
</svg>
