<?xml version="1.0" encoding="UTF-8"?><svg id="Layer_1" xmlns="http://www.w3.org/2000/svg" viewBox="0 0 393 101"><defs><style>.cls-1{fill:#06d6a0;}.cls-1,.cls-2{stroke-width:0px;}.cls-2{fill:#fff;}</style></defs><path class="cls-2" d="M43.62,22.73v19.78c0,12.64-6.92,18.43-16.55,18.43s-16.55-5.79-16.55-18.43v-19.78h4.81v19.78c0,9.4,4.74,13.84,11.73,13.84s11.73-4.44,11.73-13.84v-19.78h4.81Z"/><path class="cls-2" d="M63.92,7.68h4.81v31.36l16.92-16.32h6.24l-14.59,14.21,17.15,23.39h-5.42l-15.12-20.31-5.19,4.96v15.34h-4.81V7.68Z"/><path class="cls-2" d="M144.84,22.73v19.78c0,12.64-6.92,18.43-16.55,18.43s-16.55-5.79-16.55-18.43v-19.78h4.81v19.78c0,9.4,4.74,13.84,11.73,13.84s11.73-4.44,11.73-13.84v-19.78h4.81Z"/><path class="cls-2" d="M165.14,7.68h4.81v31.36l16.92-16.32h6.24l-14.59,14.21,17.15,23.39h-5.42l-15.12-20.31-5.19,4.96v15.34h-4.81V7.68Z"/><path class="cls-2" d="M246.06,40.55v19.78h-4.81v-19.78c0-9.4-4.74-13.84-11.73-13.84s-11.73,4.44-11.73,13.46v20.16h-4.81V7.68h4.81v20.61c2.86-4.66,6.69-6.17,11.73-6.17,9.63,0,16.55,5.79,16.55,18.43Z"/><path class="cls-2" d="M299.45,22.73v19.78c0,12.64-6.92,18.43-16.55,18.43s-16.55-5.79-16.55-18.43v-19.78h4.81v19.78c0,9.4,4.74,13.84,11.73,13.84s11.73-4.44,11.73-13.84v-19.78h4.81Z"/><path class="cls-2" d="M319.75,60.33V7.68h4.81v52.65h-4.81Z"/><path class="cls-2" d="M377.73,41.51s0,0,0,.01c0,8.27-6.39,14.82-14.52,14.82s-14.67-6.54-14.67-14.82,6.36-14.77,14.59-14.81v-4.59c-10.68,0-19.4,8.65-19.4,19.4s8.72,19.4,19.4,19.4c6.39,0,12.03-3.68,14.52-8.65v8.05h4.81v-18.8s0,0,0-.01h-4.74Z"/><polygon class="cls-1" points="382.47 37.17 377.79 37.17 377.79 26.8 367.46 26.8 367.46 22.12 382.47 22.12 382.47 37.17"/><path class="cls-1" d="M165.14,70.16h1.65v7.69c1.03-1.62,2.83-2.75,4.97-2.75,3.65,0,6.64,2.96,6.64,6.64s-2.98,6.64-6.64,6.64-6.61-2.96-6.61-6.64v-11.58ZM166.76,81.74c0,2.83,2.14,5.07,4.99,5.07s4.99-2.24,4.99-5.07-2.21-5.07-4.99-5.07-4.99,2.24-4.99,5.07Z"/><path class="cls-1" d="M198.83,75.31v6.77c0,4.32-2.37,6.3-5.66,6.3s-5.66-1.98-5.66-6.3v-6.77h1.65v6.77c0,3.22,1.62,4.73,4.01,4.73s4.01-1.52,4.01-4.73v-6.77h1.65Z"/><path class="cls-1" d="M208.09,81.48c0-4.3,2.19-6.25,5.27-6.25.13,0,.26,0,.39.03v1.57c-.13-.03-.26-.03-.39-.03-2.16,0-3.63,1.49-3.63,4.68v6.69h-1.65v-6.69Z"/><path class="cls-1" d="M222.23,84.62h1.6c0,1.44,1.31,2.29,2.93,2.29,1.83,0,2.86-.85,2.86-2.24-.05-3.68-7.13-1.31-7.13-6.2,0-2.06,1.88-3.37,4.17-3.37s4.17,1.26,4.17,3.5h-1.6c0-1.31-1.16-2.03-2.57-2.03s-2.52.72-2.52,2.01c0,3.34,7.05,1.06,7.13,6.12.03,2.37-1.88,3.68-4.53,3.68-2.37,0-4.5-1.39-4.5-3.76Z"/><path class="cls-1" d="M240.13,81.74c0-3.68,2.98-6.64,6.64-6.64s6.61,2.96,6.61,6.64v6.43h-1.65v-2.75c-.85,1.7-2.78,2.96-4.97,2.96-3.65,0-6.64-2.96-6.64-6.64ZM251.76,81.74c0-2.83-2.14-5.07-4.97-5.07s-5.02,2.24-5.02,5.07,2.24,5.07,5.02,5.07,4.97-2.24,4.97-5.07Z"/><path class="cls-1" d="M262.89,81.48c0-4.3,2.19-6.25,5.27-6.25.13,0,.26,0,.39.03v1.57c-.13-.03-.26-.03-.39-.03-2.16,0-3.63,1.49-3.63,4.68v6.69h-1.65v-6.69Z"/><path class="cls-1" d="M278.11,89.56h1.83c.67,1.29,1.88,2.19,3.52,2.19,2.39,0,4.01-1.83,4.01-4.07v-1.34c-.85,1.31-2.32,2.03-4.01,2.03-3.29,0-5.66-1.98-5.66-6.3v-6.77h1.65v6.77c0,3.22,1.62,4.73,4.01,4.73s4.01-1.44,4.01-4.4v-7.1h1.65v12.22c0,3.29-2.37,5.79-5.66,5.79-2.57,0-4.5-1.54-5.35-3.76Z"/><path class="cls-1" d="M314.32,76.88h-1.93v-1.57h1.98c.28-3.16,2.06-4.97,4.84-5.22v1.57c-1.72.28-3.01,1.49-3.19,3.65h3.19v1.57h-3.24v11.29h-1.65v-11.29Z"/><path class="cls-1" d="M339.27,75.31v6.77c0,4.32-2.37,6.3-5.66,6.3s-5.66-1.98-5.66-6.3v-6.77h1.65v6.77c0,3.22,1.62,4.73,4.01,4.73s4.01-1.52,4.01-4.73v-6.77h1.65Z"/><path class="cls-1" d="M360.1,88.17h-1.65v-6.77c0-3.22-1.62-4.73-4.01-4.73s-4.01,1.52-4.01,4.73v6.77h-1.65v-6.77c0-4.32,2.37-6.3,5.66-6.3s5.66,1.98,5.66,6.3v6.77Z"/><path class="cls-1" d="M375.86,88.38c-3.65,0-6.64-2.96-6.64-6.64s2.98-6.64,6.64-6.64c2.13,0,3.94,1.13,4.97,2.75v-7.69h1.65v11.58c0,3.68-2.96,6.64-6.61,6.64ZM370.87,81.74c0,2.83,2.16,5.07,4.99,5.07s4.99-2.24,4.99-5.07-2.19-5.07-4.99-5.07-4.99,2.24-4.99,5.07Z"/></svg>