<?xml version="1.0" encoding="UTF-8"?><svg id="Layer_1" xmlns="http://www.w3.org/2000/svg" viewBox="0 0 273 56.7"><defs><style>.cls-1{fill:#c62127;}.cls-1,.cls-2{stroke-width:0px;}.cls-2{fill:#fff;}</style></defs><path class="cls-2" d="M230.97,23.59c-1.93,0-3.51.6-4.93,2.01l-.02-7.46-2.29.05v13.16c0,.42.1,1.62.72,3.04.23.54.55.97.94,1.5,1.24,1.69,3.24,2.67,5.58,2.67,4.03,0,7.24-3.36,7.25-7.46,0-4.15-3.2-7.52-7.25-7.52ZM230.98,36.16c-2.61,0-4.77-2.15-4.87-4.84v-.42c.1-2.72,2.26-4.89,4.87-4.89s4.87,2.28,4.87,5.11-2.21,5.05-4.87,5.05h0ZM214.92,23.59c-1.93,0-3.51.6-4.93,2.01l-.02-7.46-2.29.05v13.16c0,.42.11,1.62.72,3.04.23.54.55.97.94,1.5,1.24,1.69,3.24,2.67,5.58,2.67,4.03,0,7.24-3.36,7.25-7.46,0-4.15-3.2-7.52-7.25-7.52ZM214.92,36.16c-2.61,0-4.77-2.15-4.87-4.84v-.42c.11-2.72,2.26-4.89,4.87-4.89s4.87,2.28,4.87,5.11-2.21,5.05-4.87,5.05h0ZM251.97,18.14l-.02,7.46c-1.42-1.41-3-2.01-4.93-2.01-4.03,0-7.24,3.36-7.25,7.52,0,4.08,3.2,7.46,7.25,7.46h0c2.34,0,4.34-.99,5.58-2.67.39-.53.71-.96.94-1.5.61-1.42.72-2.62.72-3.04v-13.16l-2.29-.05ZM251.88,31.31c-.1,2.7-2.26,4.84-4.87,4.84s-4.87-2.26-4.87-5.05,2.21-5.1,4.87-5.11c2.61,0,4.77,2.17,4.87,4.91,0,0,0,.42,0,.42Z"/><path class="cls-1" d="M186.35,38.4c-1.35-1.32-2.2-3.18-2.2-5.22,0-4.05,3.27-7.32,7.32-7.32.91,0,1.78.17,2.58.47l-4.38-8.19s-5.32,4.62-8.2,8.73-2.92,5.08-3.03,6.5,1.2,2.69,2.5,3.47,3.02,1.28,3.84,1.42,1.56.15,1.56.15h.01ZM186.11,33.18c0-2.97,2.4-5.37,5.37-5.37s5.37,2.4,5.37,5.37-2.4,5.37-5.37,5.37-5.37-2.4-5.37-5.37h0ZM196.7,38.32s2.62-.39,4.3-.99,3.56-1.9,3.62-3.69c.04-.98-.09-2.87-3.53-4.45-2.47-1.14-4.68-1.41-4.68-1.41,1.45,1.34,2.39,3.27,2.39,5.41,0,1.99-.82,3.81-2.11,5.14h.01Z"/><path class="cls-2" d="M25.55,21.51c3.77,0,6.83,3.04,6.83,6.83s-3.07,6.83-6.83,6.83c-2.2,0-4.05-1.17-5.11-2.83v7.92h-1.69v-11.92c0-3.79,3.04-6.83,6.81-6.83h0ZM30.69,28.34c0-2.92-2.22-5.21-5.14-5.21s-5.14,2.31-5.14,5.21,2.26,5.21,5.14,5.21,5.14-2.31,5.14-5.21Z"/><path class="cls-2" d="M48.69,28.34c0,3.79-3.04,6.83-6.83,6.83s-6.83-3.04-6.83-6.83,3.07-6.83,6.83-6.83,6.83,3.04,6.83,6.83ZM36.72,28.34c0,2.91,2.31,5.21,5.16,5.21s5.11-2.31,5.11-5.21-2.2-5.21-5.11-5.21-5.16,2.31-5.16,5.21Z"/><path class="cls-2" d="M70,21.72l-4.64,13.25h-1.69l-3.61-10.76-3.61,10.76h-1.69l-4.64-13.25h1.72l3.77,11.01,3.58-11.01h1.74l3.57,11.01,3.77-11.01h1.73Z"/><path class="cls-2" d="M78.18,21.51c3.58,0,6.62,2.67,6.72,6.65.02.27,0,.5-.02.71h-11.65c.11,2.62,2.17,4.68,4.95,4.68,1.69,0,3.18-.77,4.11-1.91h2.06c-1.21,2.15-3.61,3.52-6.14,3.52-3.81,0-6.76-3.04-6.76-6.81s2.91-6.86,6.72-6.86h.01ZM83.11,27.45c-.43-2.44-2.35-4.32-4.89-4.32s-4.59,1.94-4.98,4.32h9.87Z"/><path class="cls-2" d="M87.69,28.07c0-4.43,2.26-6.44,5.43-6.44.13,0,.27,0,.39.02v1.62c-.13-.02-.27-.02-.39-.02-2.22,0-3.73,1.53-3.73,4.82v6.88h-1.69v-6.88h-.01Z"/><path class="cls-2" d="M101.96,21.51c3.58,0,6.62,2.67,6.72,6.65.02.27,0,.5-.02.71h-11.65c.11,2.62,2.17,4.68,4.95,4.68,1.69,0,3.18-.77,4.11-1.91h2.06c-1.21,2.15-3.61,3.52-6.14,3.52-3.81,0-6.76-3.04-6.76-6.81s2.91-6.86,6.72-6.86h.01ZM106.88,27.45c-.43-2.44-2.35-4.32-4.89-4.32s-4.59,1.94-4.98,4.32h9.87Z"/><path class="cls-2" d="M118.17,35.18c-3.77,0-6.83-3.04-6.83-6.83s3.07-6.83,6.83-6.83c2.2,0,4.05,1.17,5.11,2.83v-7.92h1.69v11.92c0,3.79-3.04,6.83-6.81,6.83h0ZM113.03,28.34c0,2.91,2.22,5.21,5.14,5.21s5.14-2.31,5.14-5.21-2.26-5.21-5.14-5.21-5.14,2.31-5.14,5.21Z"/><path class="cls-2" d="M135.96,16.42h1.69v7.92c1.05-1.67,2.92-2.83,5.11-2.83,3.77,0,6.83,3.04,6.83,6.83s-3.07,6.83-6.83,6.83-6.81-3.04-6.81-6.83v-11.92h0ZM137.63,28.34c0,2.91,2.2,5.21,5.14,5.21s5.14-2.31,5.14-5.21-2.28-5.21-5.14-5.21-5.14,2.31-5.14,5.21Z"/><path class="cls-2" d="M152.7,36.39h1.88c.69,1.32,1.94,2.26,3.63,2.26,2.47,0,4.13-1.88,4.13-4.18v-1.37c-.87,1.35-2.38,2.1-4.13,2.1-3.38,0-5.83-2.04-5.83-6.49v-6.97h1.69v6.97c0,3.31,1.67,4.87,4.13,4.87s4.13-1.48,4.13-4.53v-7.31h1.69v12.58c0,3.38-2.44,5.96-5.83,5.96-2.65,0-4.64-1.58-5.51-3.86v-.02Z"/></svg>