<svg width="24" height="24" viewBox="0 0 24 24" fill="none" xmlns="http://www.w3.org/2000/svg">
<path d="M6.31925 17.6808C7.91549 19.2457 9.80908 20.0282 12 20.0282C14.1909 20.0282 16.0689 19.2457 17.6338 17.6808C19.23 16.0845 20.0282 14.1909 20.0282 12C20.0282 9.80908 19.23 7.93114 17.6338 6.3662C16.0689 4.76995 14.1909 3.97183 12 3.97183C9.80908 3.97183 7.91549 4.76995 6.31925 6.3662C4.7543 7.93114 3.97183 9.80908 3.97183 12C3.97183 14.1909 4.7543 16.0845 6.31925 17.6808ZM4.9108 4.95775C6.88263 2.98592 9.2457 2 12 2C14.7543 2 17.1017 2.98592 19.0423 4.95775C21.0141 6.89828 22 9.2457 22 12C22 14.7543 21.0141 17.1174 19.0423 19.0892C17.1017 21.0297 14.7543 22 12 22C9.2457 22 6.88263 21.0297 4.9108 19.0892C2.97027 17.1174 2 14.7543 2 12C2 9.2457 2.97027 6.89828 4.9108 4.95775Z" fill="#282728"/>
<path d="M11.9762 8.04675V6.31187C11.9762 6.03205 11.6373 5.89524 11.4427 6.09423L9.05779 8.45094C8.93227 8.5753 8.93227 8.76807 9.05779 8.89243L11.4365 11.2491C11.6373 11.4419 11.9762 11.3051 11.9762 11.0253V9.2904C14.3172 9.2904 16.1687 11.417 15.654 13.8235C15.3591 15.235 14.2042 16.373 12.7858 16.6652C10.5452 17.1316 8.54942 15.6081 8.24816 13.5499C8.20423 13.2514 7.94063 13.0213 7.6331 13.0213C7.25653 13.0213 6.95528 13.3509 7.00548 13.724C7.39461 16.4538 10.018 18.4747 12.9867 17.9026C14.9448 17.5233 16.5201 15.9626 16.903 14.0225C17.5243 10.8325 15.0766 8.04675 11.9762 8.04675Z" fill="#282728"/>
</svg>
