<?xml version="1.0" encoding="UTF-8"?>
<svg id="Layer_1" xmlns="http://www.w3.org/2000/svg" version="1.1" viewBox="0 0 230.8 77">
  <!-- Generator: Adobe Illustrator 29.4.0, SVG Export Plug-In . SVG Version: 2.1.0 Build 152)  -->
  <defs>
    <style>
      .st0 {
        fill: #fff;
      }

      .st1 {
        fill: #ed1a37;
      }
    </style>
  </defs>
  <path class="st0" d="M49.4,1v23.2h-5.4V1h5.4Z"/>
  <path class="st0" d="M69.7,16.8h-12.1c0,1.1.4,1.9,1.1,2.5.6.6,1.4.9,2.3.9,1.3,0,2.3-.6,2.8-1.7h5.7c-.3,1.1-.8,2.2-1.6,3.1s-1.7,1.6-2.9,2.2-2.4.8-3.9.8-3.2-.4-4.6-1.1c-1.3-.7-2.4-1.8-3.1-3.1-.8-1.4-1.1-3-1.1-4.8s.4-3.4,1.1-4.8c.7-1.4,1.8-2.4,3.1-3.1,1.3-.7,2.9-1.1,4.6-1.1s3.2.4,4.5,1.1,2.3,1.7,3.1,3c.7,1.3,1.1,2.8,1.1,4.6s0,1,0,1.6h0ZM64.3,13.8c0-.9-.3-1.6-.9-2.2-.6-.5-1.4-.8-2.3-.8s-1.7.3-2.3.8c-.6.5-1,1.3-1.2,2.2h6.7Z"/>
  <path class="st0" d="M72.6,10.7c.7-1.4,1.6-2.4,2.8-3.1,1.2-.7,2.5-1.1,3.9-1.1s2.3.2,3.2.8,1.7,1.2,2.2,2v-2.5h5.4v17.5h-5.4v-2.5c-.5.8-1.2,1.5-2.2,2-.9.5-2,.8-3.2.8s-2.7-.4-3.9-1.1-2.1-1.8-2.8-3.2-1-3-1-4.8.3-3.4,1-4.7ZM83.6,12.3c-.7-.8-1.7-1.2-2.7-1.2s-2,.4-2.7,1.1c-.7.8-1.1,1.8-1.1,3.2s.4,2.4,1.1,3.2,1.7,1.2,2.7,1.2,2-.4,2.7-1.2,1.1-1.8,1.1-3.2-.4-2.4-1.1-3.2Z"/>
  <path class="st0" d="M97,23.7c-1.2-.5-2.1-1.2-2.8-2.1s-1.1-1.9-1.2-3.1h5.3c0,.6.3,1.1.9,1.5s1.1.6,1.9.6,1.2-.1,1.6-.4c.4-.3.6-.6.6-1s-.3-.9-.8-1.1-1.4-.5-2.5-.8c-1.2-.3-2.3-.6-3.1-.9-.8-.3-1.6-.8-2.2-1.5-.6-.7-.9-1.6-.9-2.8s.3-1.9.8-2.8,1.4-1.5,2.4-2,2.4-.7,3.8-.7c2.2,0,3.9.5,5.2,1.6,1.3,1.1,2,2.5,2.2,4.3h-5c0-.6-.4-1.1-.8-1.4-.4-.4-1-.5-1.8-.5s-1.1.1-1.4.4-.5.6-.5,1,.3.9.8,1.1,1.4.5,2.5.8c1.3.3,2.4.7,3.2,1,.8.3,1.5.9,2.1,1.6.6.7.9,1.7,1,2.9,0,1-.3,1.9-.9,2.7-.6.8-1.4,1.4-2.5,1.9s-2.3.7-3.8.7-2.9-.3-4.1-.8h0Z"/>
  <path class="st0" d="M127,8.5c1.2,1.3,1.8,3.2,1.8,5.5v10.2h-5.3v-9.5c0-1.2-.3-2.1-.9-2.7s-1.4-1-2.4-1-1.8.3-2.4,1c-.6.6-.9,1.6-.9,2.7v9.5h-5.4V1h5.4v8.1c.5-.8,1.3-1.4,2.2-1.8s2-.7,3.2-.7c2,0,3.6.7,4.8,2h0Z"/>
  <path class="st0" d="M72.2,34.8c.9-.5,2-.8,3.1-.8v5.7h-1.5c-1.3,0-2.3.3-3,.9-.7.6-1,1.6-1,3v8.1h-5.4v-17.5h5.4v2.9c.6-1,1.4-1.7,2.3-2.3h0Z"/>
  <path class="st0" d="M93.8,33.9c.9-.5,2-.8,3.2-.8s2.8.4,3.9,1.1,2.1,1.8,2.8,3.1,1,2.9,1,4.7-.3,3.4-1,4.8c-.7,1.4-1.6,2.4-2.8,3.2-1.2.7-2.5,1.1-3.9,1.1s-2.3-.2-3.2-.8c-.9-.5-1.7-1.2-2.2-1.9v10.8h-5.4v-25.9h5.4v2.5c.5-.8,1.2-1.5,2.2-2h0ZM98.2,39c-.7-.8-1.7-1.2-2.8-1.2s-2,.4-2.7,1.2-1.1,1.8-1.1,3.2.4,2.4,1.1,3.2c.7.8,1.7,1.2,2.7,1.2s2-.4,2.7-1.2c.8-.8,1.1-1.8,1.1-3.2s-.4-2.4-1.1-3.1Z"/>
  <path class="st0" d="M110.9,50c-1.4-.7-2.4-1.8-3.2-3.1s-1.2-3-1.2-4.8.4-3.4,1.2-4.8c.8-1.4,1.9-2.4,3.3-3.2,1.4-.7,2.9-1.1,4.6-1.1s3.3.4,4.6,1.1,2.5,1.8,3.3,3.2c.8,1.4,1.2,3,1.2,4.8s-.4,3.4-1.2,4.8c-.8,1.4-1.9,2.4-3.3,3.2-1.4.7-2.9,1.1-4.7,1.1s-3.3-.4-4.6-1.1h0ZM118.2,45.4c.7-.8,1.1-1.8,1.1-3.2s-.4-2.5-1.1-3.2-1.6-1.1-2.6-1.1-1.9.4-2.6,1.1-1,1.8-1,3.2.3,2.5,1,3.2c.7.8,1.5,1.1,2.6,1.1s1.9-.4,2.6-1.1Z"/>
  <path class="st0" d="M137.3,46.3v4.5h-2.7c-1.9,0-3.5-.5-4.6-1.4s-1.6-2.5-1.6-4.7v-7h-2.1v-4.5h2.1v-4.3h5.4v4.3h3.5v4.5h-3.5v7c0,.5.1.9.4,1.1s.7.3,1.3.3h1.9Z"/>
  <path class="st0" d="M156.7,43.4h-12.1c0,1.1.4,1.9,1.1,2.5.6.6,1.4.9,2.3.9,1.3,0,2.3-.6,2.8-1.7h5.7c-.3,1.2-.8,2.2-1.6,3.1-.8.9-1.7,1.6-2.9,2.2s-2.4.8-3.9.8-3.2-.4-4.6-1.1-2.4-1.8-3.1-3.1c-.8-1.4-1.1-3-1.1-4.8s.4-3.4,1.1-4.8,1.8-2.4,3.1-3.1c1.3-.7,2.9-1.1,4.6-1.1s3.2.4,4.5,1.1,2.4,1.7,3.1,3c.7,1.3,1.1,2.8,1.1,4.6s0,1,0,1.6h0ZM151.3,40.4c0-.9-.3-1.7-.9-2.2-.6-.5-1.4-.8-2.4-.8s-1.7.3-2.3.8c-.6.5-1,1.3-1.1,2.2h6.7,0Z"/>
  <path class="st0" d="M175.2,35.2c1.2,1.3,1.8,3.2,1.8,5.5v10.2h-5.3v-9.5c0-1.2-.3-2.1-.9-2.7-.6-.7-1.4-1-2.4-1s-1.8.3-2.4,1-.9,1.6-.9,2.7v9.5h-5.4v-17.5h5.4v2.3c.5-.8,1.3-1.4,2.2-1.8s2-.7,3.1-.7c2.1,0,3.7.7,4.9,2h0Z"/>
  <path class="st0" d="M190.5,46.3v4.5h-2.7c-1.9,0-3.5-.5-4.6-1.4s-1.6-2.5-1.6-4.7v-7h-2.1v-4.5h2.1v-4.3h5.4v4.3h3.5v4.5h-3.5v7c0,.5.1.9.4,1.1s.7.3,1.2.3h1.9Z"/>
  <path class="st0" d="M193.9,30.7c-.6-.5-.9-1.2-.9-2s.3-1.5.9-2.1c.6-.5,1.4-.8,2.3-.8s1.7.3,2.3.8c.6.5.9,1.2.9,2.1s-.3,1.5-.9,2c-.6.5-1.4.8-2.3.8s-1.7-.3-2.3-.8ZM198.9,33.4v17.5h-5.4v-17.5h5.4Z"/>
  <path class="st0" d="M202.7,37.4c.7-1.4,1.6-2.4,2.8-3.1,1.2-.7,2.5-1.1,3.9-1.1s2.3.2,3.2.8,1.6,1.2,2.1,2v-2.5h5.4v17.5h-5.4v-2.5c-.5.8-1.2,1.5-2.2,2-.9.5-2,.8-3.2.8s-2.7-.4-3.9-1.1-2.1-1.8-2.8-3.2-1-3-1-4.8.3-3.4,1-4.7ZM213.7,39c-.7-.8-1.6-1.2-2.7-1.2s-2,.4-2.7,1.2c-.7.8-1.1,1.8-1.1,3.2s.4,2.4,1.1,3.2,1.6,1.2,2.7,1.2,2-.4,2.7-1.2,1.1-1.8,1.1-3.2-.4-2.4-1.1-3.2Z"/>
  <path class="st0" d="M229.4,27.7v23.2h-5.4v-23.2s5.4,0,5.4,0Z"/>
  <path class="st0" d="M38.5,8.5c1.2,1.3,1.8,3.2,1.8,5.5v10.2h-5.3v-9.5c0-1.2-.3-2.1-.9-2.7s-1.4-1-2.4-1-1.8.3-2.5,1c-.6.6-.9,1.6-.9,2.7v9.5h-5.4V6.7h5.4v2.3c.5-.8,1.3-1.4,2.2-1.8.9-.4,2-.7,3.1-.7,2.1,0,3.7.7,4.9,2h0Z"/>
  <path class="st0" d="M21.4,34.2l-11,25.8h-5.8l4-8.9L1.6,34.2h6l4,11,4-11h5.8,0Z"/>
  <path class="st0" d="M26.7,50.8c-1.4-.7-2.5-1.8-3.2-3.1s-1.2-3-1.2-4.8.4-3.4,1.2-4.8c.8-1.4,1.9-2.4,3.3-3.2,1.4-.7,2.9-1.1,4.6-1.1s3.3.4,4.6,1.1,2.5,1.8,3.3,3.2c.8,1.4,1.2,3,1.2,4.8s-.4,3.4-1.2,4.8-1.9,2.4-3.3,3.2-2.9,1.1-4.7,1.1-3.3-.4-4.6-1.1h0ZM34,46.2c.7-.8,1.1-1.8,1.1-3.2s-.3-2.5-1.1-3.2c-.7-.8-1.6-1.1-2.6-1.1s-1.9.4-2.6,1.1c-.7.7-1,1.8-1,3.2s.3,2.5,1,3.2c.7.8,1.5,1.1,2.6,1.1s1.9-.4,2.6-1.1Z"/>
  <path class="st0" d="M60.6,34.2v17.5h-5.4v-2.4c-.5.8-1.3,1.4-2.2,1.9-.9.5-2,.7-3.1.7s-2.5-.3-3.5-.9c-1-.6-1.8-1.5-2.4-2.6s-.8-2.5-.8-4v-10.2h5.3v9.5c0,1.2.3,2.1.9,2.7.6.7,1.4,1,2.4,1s1.9-.3,2.5-1,.9-1.6.9-2.7v-9.5h5.4,0Z"/>
  <g>
    <path class="st0" d="M7.3,6.7v9.5c0,1.2.3,2.1.9,2.7s1.4,1,2.5,1h0c1,0,1.8-.3,2.5-1,.6-.6.9-1.6.9-2.7s.9-1.9,1.9-1.9h1.5c1.1,0,1.9.9,1.9,1.9v.7c0,1.5-.3,2.9-.8,4-.6,1.1-1.4,2-2.4,2.6s-2.2.9-3.5.9c0,0-2.7,0-3.8,0-1.3,0-2.5-.3-3.5-.9-1-.6-1.8-1.5-2.4-2.6s-.8-2.5-.8-4V6.7h5.3,0Z"/>
    <circle class="st1" cx="16.7" cy="9.4" r="2.7"/>
  </g>
  <path class="st0" d="M13.4,66.9l-2.6,9h-1.3l-2.1-7.3-2.2,7.3h-1.3l-2.5-9h1.3l2,7.7,2.2-7.7h1.3l2.1,7.6,2-7.6h1.3Z"/>
  <path class="st0" d="M16.4,66.9v9h-1.2v-9h1.2Z"/>
  <path class="st0" d="M24.5,66.9v1h-2.5v8.1h-1.2v-8.1h-2.5v-1h6.1Z"/>
  <path class="st0" d="M33.4,66.9v9h-1.2v-4.1h-4.6v4.1h-1.2v-9h1.2v4h4.6v-4s1.2,0,1.2,0Z"/>
  <path class="st0" d="M45.3,71.6c.3.2.5.5.7.8s.2.7.2,1-.1.9-.3,1.2c-.2.4-.6.7-1,.9-.4.2-1,.3-1.6.3h-3.4v-9h3.2c.6,0,1.1,0,1.6.3.4.2.8.5,1,.8.2.3.3.7.3,1.2s-.1,1-.4,1.3-.7.6-1.2.8c.3,0,.6.2.9.4ZM41.1,70.8h2c.6,0,1-.1,1.3-.4.3-.3.4-.6.4-1.1s-.2-.8-.4-1.1c-.3-.3-.7-.4-1.3-.4h-2v2.9h0ZM44.5,74.5c.3-.3.5-.7.5-1.2s-.2-.9-.5-1.2-.8-.4-1.4-.4h-2.1v3.2h2.1c.6,0,1-.1,1.4-.4h0Z"/>
  <path class="st0" d="M53.8,71.6c.3.2.5.5.7.8s.2.7.2,1-.1.9-.3,1.2c-.2.4-.6.7-1,.9-.4.2-1,.3-1.6.3h-3.4v-9h3.2c.6,0,1.1,0,1.6.3.4.2.8.5,1,.8.2.3.3.7.3,1.2s-.1,1-.4,1.3-.7.6-1.2.8c.3,0,.6.2.9.4ZM49.5,70.8h2c.6,0,1-.1,1.3-.4.3-.3.4-.6.4-1.1s-.2-.8-.4-1.1c-.3-.3-.7-.4-1.3-.4h-2v2.9h0ZM53,74.5c.3-.3.5-.7.5-1.2s-.2-.9-.5-1.2-.8-.4-1.4-.4h-2.1v3.2h2.1c.6,0,1-.1,1.4-.4h0Z"/>
  <path class="st0" d="M62.2,67.4c.7.4,1.3.9,1.7,1.6.4.7.6,1.5.6,2.4s-.2,1.7-.6,2.4c-.4.7-.9,1.2-1.7,1.6-.7.4-1.6.5-2.6.5h-2.8v-9h2.8c1,0,1.8.2,2.6.6h0ZM62.3,74c.6-.6.9-1.5.9-2.6s-.3-2-.9-2.6-1.5-.9-2.7-.9h-1.6v7.1h1.6c1.2,0,2.1-.3,2.7-.9h0Z"/>
  <path class="st0" d="M66.7,66.9h1.3l-1.2,2.9h-.8l.8-2.9Z"/>
  <path class="st0" d="M71.1,75.7c-.5-.2-.8-.5-1.1-.9-.3-.4-.4-.8-.4-1.3h1.3c0,.4.2.8.5,1.1.3.3.8.4,1.3.4s1-.1,1.3-.4c.3-.3.5-.6.5-1.1s0-.6-.3-.8c-.2-.2-.4-.4-.7-.5-.3-.1-.7-.2-1.2-.4-.6-.2-1.1-.3-1.4-.5s-.7-.4-.9-.7-.4-.8-.4-1.3.1-.9.4-1.3.6-.7,1.1-.9,1-.3,1.6-.3c.8,0,1.5.2,2.1.6s.8,1,.9,1.7h-1.3c0-.3-.2-.7-.5-.9s-.7-.4-1.3-.4-.9.1-1.2.4-.5.6-.5,1.1,0,.6.3.8c.2.2.4.4.7.5.3.1.7.2,1.2.4.6.2,1.1.3,1.4.5.4.2.7.4.9.7.3.3.4.8.4,1.3s-.1.8-.3,1.2c-.2.4-.6.7-1,.9-.5.2-1,.4-1.6.4s-1.1-.1-1.6-.3h0Z"/>
  <path class="st0" d="M87.4,71.6c.3.2.5.5.7.8s.2.7.2,1-.1.9-.3,1.2c-.2.4-.6.7-1,.9-.4.2-1,.3-1.6.3h-3.4v-9h3.2c.6,0,1.1,0,1.6.3.4.2.8.5,1,.8.2.3.3.7.3,1.2s-.1,1-.4,1.3-.7.6-1.2.8c.3,0,.6.2.9.4ZM83.1,70.8h2c.6,0,1-.1,1.3-.4.3-.3.4-.6.4-1.1s-.2-.8-.4-1.1c-.3-.3-.7-.4-1.3-.4h-2v2.9h0ZM86.6,74.5c.3-.3.5-.7.5-1.2s-.2-.9-.5-1.2-.8-.4-1.4-.4h-2.1v3.2h2.1c.6,0,1-.1,1.4-.4h0Z"/>
  <path class="st0" d="M91.5,66.9v5.7c0,.8.2,1.4.6,1.8s.9.6,1.6.6,1.2-.2,1.6-.6c.4-.4.6-1,.6-1.8v-5.7h1.2v5.7c0,.8-.1,1.4-.4,1.9-.3.5-.7.9-1.2,1.2s-1.1.4-1.7.4-1.2-.1-1.7-.4-.9-.6-1.2-1.2c-.3-.5-.4-1.2-.4-1.9v-5.7h1.2,0Z"/>
  <path class="st0" d="M104.4,75.9l-2.1-3.7h-1.4v3.7h-1.2v-9h2.9c.7,0,1.3.1,1.7.3.5.2.8.6,1.1.9.2.4.4.8.4,1.4s-.2,1.2-.5,1.7-.9.8-1.6.9l2.3,3.8h-1.4ZM100.8,71.3h1.7c.6,0,1.1-.2,1.4-.5.3-.3.5-.7.5-1.3s-.2-.9-.5-1.2c-.3-.3-.8-.4-1.4-.4h-1.7v3.4h0Z"/>
  <path class="st0" d="M109.3,75.7c-.5-.2-.8-.5-1.1-.9-.3-.4-.4-.8-.4-1.3h1.3c0,.4.2.8.5,1.1.3.3.8.4,1.3.4s1-.1,1.3-.4c.3-.3.5-.6.5-1.1s-.1-.6-.3-.8c-.2-.2-.4-.4-.7-.5-.3-.1-.7-.2-1.1-.4-.6-.2-1.1-.3-1.4-.5-.4-.2-.7-.4-.9-.7s-.4-.8-.4-1.3.1-.9.4-1.3.6-.7,1.1-.9,1-.3,1.6-.3c.9,0,1.5.2,2.1.6.5.4.8,1,.9,1.7h-1.3c0-.3-.2-.7-.5-.9-.3-.3-.7-.4-1.3-.4s-.9.1-1.2.4-.5.6-.5,1.1,0,.6.3.8c.2.2.4.4.7.5.3.1.6.2,1.1.4.6.2,1.1.3,1.4.5.4.2.7.4.9.7.3.3.4.8.4,1.3s-.1.8-.4,1.2c-.2.4-.6.7-1,.9-.5.2-1,.4-1.6.4s-1.1-.1-1.6-.3h0Z"/>
  <path class="st0" d="M121.5,73.9h-3.9l-.7,2h-1.2l3.3-9h1.4l3.2,9h-1.2l-.7-2h0ZM121.2,72.9l-1.6-4.6-1.6,4.6h3.3Z"/>
  <path class="st0" d="M130.2,75.9l-2.1-3.7h-1.4v3.7h-1.2v-9h2.9c.7,0,1.3.1,1.7.3.5.2.8.6,1.1.9.2.4.4.8.4,1.4s-.2,1.2-.5,1.7-.9.8-1.6.9l2.3,3.8h-1.4ZM126.6,71.3h1.7c.6,0,1.1-.2,1.4-.5.3-.3.5-.7.5-1.3s-.2-.9-.5-1.2c-.3-.3-.8-.4-1.4-.4h-1.7v3.4h0Z"/>
  <path class="st0" d="M140.1,66.9l-2.9,5.6v3.4h-1.2v-3.4l-2.9-5.6h1.3l2.2,4.6,2.2-4.6h1.3,0Z"/>
  <path class="st0" d="M151.1,71.4c-.5.5-1.3.7-2.4.7h-1.7v3.8h-1.2v-9h2.9c1,0,1.8.2,2.3.7.5.5.8,1.1.8,1.9s-.3,1.4-.8,1.9h0ZM150.2,70.7c.3-.3.5-.7.5-1.2,0-1.1-.6-1.7-1.9-1.7h-1.7v3.3h1.7c.7,0,1.1-.1,1.4-.4Z"/>
  <path class="st0" d="M158.7,75.9l-2.1-3.7h-1.4v3.7h-1.2v-9h2.9c.7,0,1.3.1,1.7.3.5.2.8.6,1.1.9.2.4.4.8.4,1.4s-.2,1.2-.5,1.7-.9.8-1.6.9l2.3,3.8h-1.4ZM155.1,71.3h1.7c.6,0,1.1-.2,1.4-.5.3-.3.5-.7.5-1.3s-.2-.9-.5-1.2c-.3-.3-.8-.4-1.4-.4h-1.7v3.4h0Z"/>
  <path class="st0" d="M164.1,75.4c-.7-.4-1.2-.9-1.6-1.7-.4-.7-.6-1.5-.6-2.4s.2-1.7.6-2.4c.4-.7.9-1.2,1.6-1.7.7-.4,1.5-.6,2.3-.6s1.6.2,2.3.6c.7.4,1.2.9,1.6,1.6.4.7.6,1.5.6,2.4s-.2,1.7-.6,2.4c-.4.7-.9,1.2-1.6,1.6s-1.5.6-2.3.6-1.6-.2-2.3-.6h0ZM168.1,74.5c.5-.3.9-.7,1.2-1.3.3-.5.4-1.2.4-1.9s-.1-1.4-.4-1.9-.7-1-1.2-1.2c-.5-.3-1.1-.4-1.7-.4s-1.2.2-1.7.4-.9.7-1.2,1.2c-.3.5-.4,1.2-.4,1.9s.1,1.3.4,1.9.7,1,1.2,1.3c.5.3,1.1.4,1.7.4s1.2-.2,1.7-.4h0Z"/>
  <path class="st0" d="M179.8,69.5c-.2-.5-.6-.9-1.1-1.2-.5-.3-1-.4-1.7-.4s-1.2.1-1.7.4c-.5.3-.9.7-1.2,1.2-.3.5-.4,1.2-.4,1.9s.1,1.3.4,1.9.7.9,1.2,1.2c.5.3,1.1.4,1.7.4s1.6-.3,2.2-.8c.6-.5.9-1.2,1-2.1h-3.6v-1h4.9v.9c0,.7-.3,1.4-.7,2s-.9,1.1-1.6,1.5c-.6.4-1.4.5-2.2.5s-1.6-.2-2.3-.6c-.7-.4-1.2-.9-1.6-1.6s-.6-1.5-.6-2.4.2-1.7.6-2.4c.4-.7.9-1.2,1.6-1.7.7-.4,1.5-.6,2.3-.6s1.8.2,2.6.7c.7.5,1.3,1.1,1.6,2h-1.4Z"/>
  <path class="st0" d="M188.3,75.9l-2.1-3.7h-1.4v3.7h-1.2v-9h2.9c.7,0,1.3.1,1.7.3.5.2.8.6,1.1.9.2.4.4.8.4,1.4s-.2,1.2-.5,1.7-.9.8-1.6.9l2.3,3.8h-1.4ZM184.8,71.3h1.7c.6,0,1.1-.2,1.4-.5.3-.3.5-.7.5-1.3s-.2-.9-.5-1.2c-.3-.3-.8-.4-1.4-.4h-1.7v3.4h0Z"/>
  <path class="st0" d="M197.3,73.9h-3.9l-.7,2h-1.2l3.3-9h1.4l3.2,9h-1.2l-.7-2h0ZM197,72.9l-1.6-4.6-1.6,4.6h3.3Z"/>
  <path class="st0" d="M210.4,66.9v9h-1.2v-6.7l-3,6.7h-.8l-3-6.7v6.7h-1.2v-9h1.3l3.3,7.4,3.3-7.4h1.3,0Z"/>
  <path class="st0" d="M222.1,66.9v9h-1.2v-6.7l-3,6.7h-.8l-3-6.7v6.7h-1.2v-9h1.3l3.3,7.4,3.3-7.4h1.3,0Z"/>
  <path class="st0" d="M225.8,67.8v3h3.3v1h-3.3v3.1h3.7v1h-4.9v-9h4.9v1h-3.7Z"/>
</svg>